<?xml version="1.0" encoding="utf-8" standalone="no"?>
<!DOCTYPE svg PUBLIC "-//W3C//DTD SVG 1.1//EN"
  "http://www.w3.org/Graphics/SVG/1.1/DTD/svg11.dtd">
<svg xmlns:xlink="http://www.w3.org/1999/xlink" width="864pt" height="576pt" viewBox="0 0 864 576" xmlns="http://www.w3.org/2000/svg" version="1.1">
 <metadata>
  <rdf:RDF xmlns:dc="http://purl.org/dc/elements/1.1/" xmlns:cc="http://creativecommons.org/ns#" xmlns:rdf="http://www.w3.org/1999/02/22-rdf-syntax-ns#">
   <cc:Work>
    <dc:type rdf:resource="http://purl.org/dc/dcmitype/StillImage"/>
    <dc:date>2026-05-16T08:05:55.102400</dc:date>
    <dc:format>image/svg+xml</dc:format>
    <dc:creator>
     <cc:Agent>
      <dc:title>Matplotlib v3.10.8, https://matplotlib.org/</dc:title>
     </cc:Agent>
    </dc:creator>
   </cc:Work>
  </rdf:RDF>
 </metadata>
 <defs>
  <style type="text/css">*{stroke-linejoin: round; stroke-linecap: butt}</style>
 </defs>
 <g id="figure_1">
  <g id="patch_1">
   <path d="M 0 576 
L 864 576 
L 864 0 
L 0 0 
z
" style="fill: #ffffff"/>
  </g>
  <g id="axes_1">
   <g id="patch_2">
    <path d="M 62.39 534.04 
L 429.387627 534.04 
L 429.387627 26.88 
L 62.39 26.88 
z
" style="fill: #ffffff"/>
   </g>
   <g id="matplotlib.axis_1">
    <g id="xtick_1">
     <g id="line2d_1">
      <path d="M 79.07171 534.04 
L 79.07171 26.88 
" clip-path="url(#p3d00f8bd9b)" style="fill: none; stroke: #b0b0b0; stroke-width: 0.8; stroke-linecap: square"/>
     </g>
     <g id="line2d_2">
      <defs>
       <path id="m987c3e066a" d="M 0 0 
L 0 3.5 
" style="stroke: #000000; stroke-width: 0.8"/>
      </defs>
      <g>
       <use xlink:href="#m987c3e066a" x="79.07171" y="534.04" style="stroke: #000000; stroke-width: 0.8"/>
      </g>
     </g>
     <g id="text_1">
      <!-- 0.0 -->
      <g transform="translate(71.120148 548.638438) scale(0.1 -0.1)">
       <defs>
        <path id="DejaVuSans-30" d="M 2034 4250 
Q 1547 4250 1301 3770 
Q 1056 3291 1056 2328 
Q 1056 1369 1301 889 
Q 1547 409 2034 409 
Q 2525 409 2770 889 
Q 3016 1369 3016 2328 
Q 3016 3291 2770 3770 
Q 2525 4250 2034 4250 
z
M 2034 4750 
Q 2819 4750 3233 4129 
Q 3647 3509 3647 2328 
Q 3647 1150 3233 529 
Q 2819 -91 2034 -91 
Q 1250 -91 836 529 
Q 422 1150 422 2328 
Q 422 3509 836 4129 
Q 1250 4750 2034 4750 
z
" transform="scale(0.015625)"/>
        <path id="DejaVuSans-2e" d="M 684 794 
L 1344 794 
L 1344 0 
L 684 0 
L 684 794 
z
" transform="scale(0.015625)"/>
       </defs>
       <use xlink:href="#DejaVuSans-30"/>
       <use xlink:href="#DejaVuSans-2e" transform="translate(63.623047 0)"/>
       <use xlink:href="#DejaVuSans-30" transform="translate(95.410156 0)"/>
      </g>
     </g>
    </g>
    <g id="xtick_2">
     <g id="line2d_3">
      <path d="M 137.40439 534.04 
L 137.40439 26.88 
" clip-path="url(#p3d00f8bd9b)" style="fill: none; stroke: #b0b0b0; stroke-width: 0.8; stroke-linecap: square"/>
     </g>
     <g id="line2d_4">
      <g>
       <use xlink:href="#m987c3e066a" x="137.40439" y="534.04" style="stroke: #000000; stroke-width: 0.8"/>
      </g>
     </g>
     <g id="text_2">
      <!-- 0.2 -->
      <g transform="translate(129.452827 548.638438) scale(0.1 -0.1)">
       <defs>
        <path id="DejaVuSans-32" d="M 1228 531 
L 3431 531 
L 3431 0 
L 469 0 
L 469 531 
Q 828 903 1448 1529 
Q 2069 2156 2228 2338 
Q 2531 2678 2651 2914 
Q 2772 3150 2772 3378 
Q 2772 3750 2511 3984 
Q 2250 4219 1831 4219 
Q 1534 4219 1204 4116 
Q 875 4013 500 3803 
L 500 4441 
Q 881 4594 1212 4672 
Q 1544 4750 1819 4750 
Q 2544 4750 2975 4387 
Q 3406 4025 3406 3419 
Q 3406 3131 3298 2873 
Q 3191 2616 2906 2266 
Q 2828 2175 2409 1742 
Q 1991 1309 1228 531 
z
" transform="scale(0.015625)"/>
       </defs>
       <use xlink:href="#DejaVuSans-30"/>
       <use xlink:href="#DejaVuSans-2e" transform="translate(63.623047 0)"/>
       <use xlink:href="#DejaVuSans-32" transform="translate(95.410156 0)"/>
      </g>
     </g>
    </g>
    <g id="xtick_3">
     <g id="line2d_5">
      <path d="M 195.737069 534.04 
L 195.737069 26.88 
" clip-path="url(#p3d00f8bd9b)" style="fill: none; stroke: #b0b0b0; stroke-width: 0.8; stroke-linecap: square"/>
     </g>
     <g id="line2d_6">
      <g>
       <use xlink:href="#m987c3e066a" x="195.737069" y="534.04" style="stroke: #000000; stroke-width: 0.8"/>
      </g>
     </g>
     <g id="text_3">
      <!-- 0.4 -->
      <g transform="translate(187.785507 548.638438) scale(0.1 -0.1)">
       <defs>
        <path id="DejaVuSans-34" d="M 2419 4116 
L 825 1625 
L 2419 1625 
L 2419 4116 
z
M 2253 4666 
L 3047 4666 
L 3047 1625 
L 3713 1625 
L 3713 1100 
L 3047 1100 
L 3047 0 
L 2419 0 
L 2419 1100 
L 313 1100 
L 313 1709 
L 2253 4666 
z
" transform="scale(0.015625)"/>
       </defs>
       <use xlink:href="#DejaVuSans-30"/>
       <use xlink:href="#DejaVuSans-2e" transform="translate(63.623047 0)"/>
       <use xlink:href="#DejaVuSans-34" transform="translate(95.410156 0)"/>
      </g>
     </g>
    </g>
    <g id="xtick_4">
     <g id="line2d_7">
      <path d="M 254.069748 534.04 
L 254.069748 26.88 
" clip-path="url(#p3d00f8bd9b)" style="fill: none; stroke: #b0b0b0; stroke-width: 0.8; stroke-linecap: square"/>
     </g>
     <g id="line2d_8">
      <g>
       <use xlink:href="#m987c3e066a" x="254.069748" y="534.04" style="stroke: #000000; stroke-width: 0.8"/>
      </g>
     </g>
     <g id="text_4">
      <!-- 0.6 -->
      <g transform="translate(246.118186 548.638438) scale(0.1 -0.1)">
       <defs>
        <path id="DejaVuSans-36" d="M 2113 2584 
Q 1688 2584 1439 2293 
Q 1191 2003 1191 1497 
Q 1191 994 1439 701 
Q 1688 409 2113 409 
Q 2538 409 2786 701 
Q 3034 994 3034 1497 
Q 3034 2003 2786 2293 
Q 2538 2584 2113 2584 
z
M 3366 4563 
L 3366 3988 
Q 3128 4100 2886 4159 
Q 2644 4219 2406 4219 
Q 1781 4219 1451 3797 
Q 1122 3375 1075 2522 
Q 1259 2794 1537 2939 
Q 1816 3084 2150 3084 
Q 2853 3084 3261 2657 
Q 3669 2231 3669 1497 
Q 3669 778 3244 343 
Q 2819 -91 2113 -91 
Q 1303 -91 875 529 
Q 447 1150 447 2328 
Q 447 3434 972 4092 
Q 1497 4750 2381 4750 
Q 2619 4750 2861 4703 
Q 3103 4656 3366 4563 
z
" transform="scale(0.015625)"/>
       </defs>
       <use xlink:href="#DejaVuSans-30"/>
       <use xlink:href="#DejaVuSans-2e" transform="translate(63.623047 0)"/>
       <use xlink:href="#DejaVuSans-36" transform="translate(95.410156 0)"/>
      </g>
     </g>
    </g>
    <g id="xtick_5">
     <g id="line2d_9">
      <path d="M 312.402428 534.04 
L 312.402428 26.88 
" clip-path="url(#p3d00f8bd9b)" style="fill: none; stroke: #b0b0b0; stroke-width: 0.8; stroke-linecap: square"/>
     </g>
     <g id="line2d_10">
      <g>
       <use xlink:href="#m987c3e066a" x="312.402428" y="534.04" style="stroke: #000000; stroke-width: 0.8"/>
      </g>
     </g>
     <g id="text_5">
      <!-- 0.8 -->
      <g transform="translate(304.450865 548.638438) scale(0.1 -0.1)">
       <defs>
        <path id="DejaVuSans-38" d="M 2034 2216 
Q 1584 2216 1326 1975 
Q 1069 1734 1069 1313 
Q 1069 891 1326 650 
Q 1584 409 2034 409 
Q 2484 409 2743 651 
Q 3003 894 3003 1313 
Q 3003 1734 2745 1975 
Q 2488 2216 2034 2216 
z
M 1403 2484 
Q 997 2584 770 2862 
Q 544 3141 544 3541 
Q 544 4100 942 4425 
Q 1341 4750 2034 4750 
Q 2731 4750 3128 4425 
Q 3525 4100 3525 3541 
Q 3525 3141 3298 2862 
Q 3072 2584 2669 2484 
Q 3125 2378 3379 2068 
Q 3634 1759 3634 1313 
Q 3634 634 3220 271 
Q 2806 -91 2034 -91 
Q 1263 -91 848 271 
Q 434 634 434 1313 
Q 434 1759 690 2068 
Q 947 2378 1403 2484 
z
M 1172 3481 
Q 1172 3119 1398 2916 
Q 1625 2713 2034 2713 
Q 2441 2713 2670 2916 
Q 2900 3119 2900 3481 
Q 2900 3844 2670 4047 
Q 2441 4250 2034 4250 
Q 1625 4250 1398 4047 
Q 1172 3844 1172 3481 
z
" transform="scale(0.015625)"/>
       </defs>
       <use xlink:href="#DejaVuSans-30"/>
       <use xlink:href="#DejaVuSans-2e" transform="translate(63.623047 0)"/>
       <use xlink:href="#DejaVuSans-38" transform="translate(95.410156 0)"/>
      </g>
     </g>
    </g>
    <g id="xtick_6">
     <g id="line2d_11">
      <path d="M 370.735107 534.04 
L 370.735107 26.88 
" clip-path="url(#p3d00f8bd9b)" style="fill: none; stroke: #b0b0b0; stroke-width: 0.8; stroke-linecap: square"/>
     </g>
     <g id="line2d_12">
      <g>
       <use xlink:href="#m987c3e066a" x="370.735107" y="534.04" style="stroke: #000000; stroke-width: 0.8"/>
      </g>
     </g>
     <g id="text_6">
      <!-- 1.0 -->
      <g transform="translate(362.783545 548.638438) scale(0.1 -0.1)">
       <defs>
        <path id="DejaVuSans-31" d="M 794 531 
L 1825 531 
L 1825 4091 
L 703 3866 
L 703 4441 
L 1819 4666 
L 2450 4666 
L 2450 531 
L 3481 531 
L 3481 0 
L 794 0 
L 794 531 
z
" transform="scale(0.015625)"/>
       </defs>
       <use xlink:href="#DejaVuSans-31"/>
       <use xlink:href="#DejaVuSans-2e" transform="translate(63.623047 0)"/>
       <use xlink:href="#DejaVuSans-30" transform="translate(95.410156 0)"/>
      </g>
     </g>
    </g>
    <g id="xtick_7">
     <g id="line2d_13">
      <path d="M 429.067787 534.04 
L 429.067787 26.88 
" clip-path="url(#p3d00f8bd9b)" style="fill: none; stroke: #b0b0b0; stroke-width: 0.8; stroke-linecap: square"/>
     </g>
     <g id="line2d_14">
      <g>
       <use xlink:href="#m987c3e066a" x="429.067787" y="534.04" style="stroke: #000000; stroke-width: 0.8"/>
      </g>
     </g>
     <g id="text_7">
      <!-- 1.2 -->
      <g transform="translate(421.116224 548.638438) scale(0.1 -0.1)">
       <use xlink:href="#DejaVuSans-31"/>
       <use xlink:href="#DejaVuSans-2e" transform="translate(63.623047 0)"/>
       <use xlink:href="#DejaVuSans-32" transform="translate(95.410156 0)"/>
      </g>
     </g>
    </g>
    <g id="text_8">
     <!-- X -->
     <g transform="translate(242.463814 562.316562) scale(0.1 -0.1)">
      <defs>
       <path id="DejaVuSans-58" d="M 403 4666 
L 1081 4666 
L 2241 2931 
L 3406 4666 
L 4084 4666 
L 2584 2425 
L 4184 0 
L 3506 0 
L 2194 1984 
L 872 0 
L 191 0 
L 1856 2491 
L 403 4666 
z
" transform="scale(0.015625)"/>
      </defs>
      <use xlink:href="#DejaVuSans-58"/>
     </g>
    </g>
   </g>
   <g id="matplotlib.axis_2">
    <g id="ytick_1">
     <g id="line2d_15">
      <path d="M 62.39 510.987273 
L 429.387627 510.987273 
" clip-path="url(#p3d00f8bd9b)" style="fill: none; stroke: #b0b0b0; stroke-width: 0.8; stroke-linecap: square"/>
     </g>
     <g id="line2d_16">
      <defs>
       <path id="ma664470758" d="M 0 0 
L -3.5 0 
" style="stroke: #000000; stroke-width: 0.8"/>
      </defs>
      <g>
       <use xlink:href="#ma664470758" x="62.39" y="510.987273" style="stroke: #000000; stroke-width: 0.8"/>
      </g>
     </g>
     <g id="text_9">
      <!-- −1.00 -->
      <g transform="translate(24.744687 514.786491) scale(0.1 -0.1)">
       <defs>
        <path id="DejaVuSans-2212" d="M 678 2272 
L 4684 2272 
L 4684 1741 
L 678 1741 
L 678 2272 
z
" transform="scale(0.015625)"/>
       </defs>
       <use xlink:href="#DejaVuSans-2212"/>
       <use xlink:href="#DejaVuSans-31" transform="translate(83.789062 0)"/>
       <use xlink:href="#DejaVuSans-2e" transform="translate(147.412109 0)"/>
       <use xlink:href="#DejaVuSans-30" transform="translate(179.199219 0)"/>
       <use xlink:href="#DejaVuSans-30" transform="translate(242.822266 0)"/>
      </g>
     </g>
    </g>
    <g id="ytick_2">
     <g id="line2d_17">
      <path d="M 62.39 453.355461 
L 429.387627 453.355461 
" clip-path="url(#p3d00f8bd9b)" style="fill: none; stroke: #b0b0b0; stroke-width: 0.8; stroke-linecap: square"/>
     </g>
     <g id="line2d_18">
      <g>
       <use xlink:href="#ma664470758" x="62.39" y="453.355461" style="stroke: #000000; stroke-width: 0.8"/>
      </g>
     </g>
     <g id="text_10">
      <!-- −0.75 -->
      <g transform="translate(24.744687 457.15468) scale(0.1 -0.1)">
       <defs>
        <path id="DejaVuSans-37" d="M 525 4666 
L 3525 4666 
L 3525 4397 
L 1831 0 
L 1172 0 
L 2766 4134 
L 525 4134 
L 525 4666 
z
" transform="scale(0.015625)"/>
        <path id="DejaVuSans-35" d="M 691 4666 
L 3169 4666 
L 3169 4134 
L 1269 4134 
L 1269 2991 
Q 1406 3038 1543 3061 
Q 1681 3084 1819 3084 
Q 2600 3084 3056 2656 
Q 3513 2228 3513 1497 
Q 3513 744 3044 326 
Q 2575 -91 1722 -91 
Q 1428 -91 1123 -41 
Q 819 9 494 109 
L 494 744 
Q 775 591 1075 516 
Q 1375 441 1709 441 
Q 2250 441 2565 725 
Q 2881 1009 2881 1497 
Q 2881 1984 2565 2268 
Q 2250 2553 1709 2553 
Q 1456 2553 1204 2497 
Q 953 2441 691 2322 
L 691 4666 
z
" transform="scale(0.015625)"/>
       </defs>
       <use xlink:href="#DejaVuSans-2212"/>
       <use xlink:href="#DejaVuSans-30" transform="translate(83.789062 0)"/>
       <use xlink:href="#DejaVuSans-2e" transform="translate(147.412109 0)"/>
       <use xlink:href="#DejaVuSans-37" transform="translate(179.199219 0)"/>
       <use xlink:href="#DejaVuSans-35" transform="translate(242.822266 0)"/>
      </g>
     </g>
    </g>
    <g id="ytick_3">
     <g id="line2d_19">
      <path d="M 62.39 395.723649 
L 429.387627 395.723649 
" clip-path="url(#p3d00f8bd9b)" style="fill: none; stroke: #b0b0b0; stroke-width: 0.8; stroke-linecap: square"/>
     </g>
     <g id="line2d_20">
      <g>
       <use xlink:href="#ma664470758" x="62.39" y="395.723649" style="stroke: #000000; stroke-width: 0.8"/>
      </g>
     </g>
     <g id="text_11">
      <!-- −0.50 -->
      <g transform="translate(24.744687 399.522868) scale(0.1 -0.1)">
       <use xlink:href="#DejaVuSans-2212"/>
       <use xlink:href="#DejaVuSans-30" transform="translate(83.789062 0)"/>
       <use xlink:href="#DejaVuSans-2e" transform="translate(147.412109 0)"/>
       <use xlink:href="#DejaVuSans-35" transform="translate(179.199219 0)"/>
       <use xlink:href="#DejaVuSans-30" transform="translate(242.822266 0)"/>
      </g>
     </g>
    </g>
    <g id="ytick_4">
     <g id="line2d_21">
      <path d="M 62.39 338.091838 
L 429.387627 338.091838 
" clip-path="url(#p3d00f8bd9b)" style="fill: none; stroke: #b0b0b0; stroke-width: 0.8; stroke-linecap: square"/>
     </g>
     <g id="line2d_22">
      <g>
       <use xlink:href="#ma664470758" x="62.39" y="338.091838" style="stroke: #000000; stroke-width: 0.8"/>
      </g>
     </g>
     <g id="text_12">
      <!-- −0.25 -->
      <g transform="translate(24.744687 341.891056) scale(0.1 -0.1)">
       <use xlink:href="#DejaVuSans-2212"/>
       <use xlink:href="#DejaVuSans-30" transform="translate(83.789062 0)"/>
       <use xlink:href="#DejaVuSans-2e" transform="translate(147.412109 0)"/>
       <use xlink:href="#DejaVuSans-32" transform="translate(179.199219 0)"/>
       <use xlink:href="#DejaVuSans-35" transform="translate(242.822266 0)"/>
      </g>
     </g>
    </g>
    <g id="ytick_5">
     <g id="line2d_23">
      <path d="M 62.39 280.460026 
L 429.387627 280.460026 
" clip-path="url(#p3d00f8bd9b)" style="fill: none; stroke: #b0b0b0; stroke-width: 0.8; stroke-linecap: square"/>
     </g>
     <g id="line2d_24">
      <g>
       <use xlink:href="#ma664470758" x="62.39" y="280.460026" style="stroke: #000000; stroke-width: 0.8"/>
      </g>
     </g>
     <g id="text_13">
      <!-- 0.00 -->
      <g transform="translate(33.124375 284.259245) scale(0.1 -0.1)">
       <use xlink:href="#DejaVuSans-30"/>
       <use xlink:href="#DejaVuSans-2e" transform="translate(63.623047 0)"/>
       <use xlink:href="#DejaVuSans-30" transform="translate(95.410156 0)"/>
       <use xlink:href="#DejaVuSans-30" transform="translate(159.033203 0)"/>
      </g>
     </g>
    </g>
    <g id="ytick_6">
     <g id="line2d_25">
      <path d="M 62.39 222.828214 
L 429.387627 222.828214 
" clip-path="url(#p3d00f8bd9b)" style="fill: none; stroke: #b0b0b0; stroke-width: 0.8; stroke-linecap: square"/>
     </g>
     <g id="line2d_26">
      <g>
       <use xlink:href="#ma664470758" x="62.39" y="222.828214" style="stroke: #000000; stroke-width: 0.8"/>
      </g>
     </g>
     <g id="text_14">
      <!-- 0.25 -->
      <g transform="translate(33.124375 226.627433) scale(0.1 -0.1)">
       <use xlink:href="#DejaVuSans-30"/>
       <use xlink:href="#DejaVuSans-2e" transform="translate(63.623047 0)"/>
       <use xlink:href="#DejaVuSans-32" transform="translate(95.410156 0)"/>
       <use xlink:href="#DejaVuSans-35" transform="translate(159.033203 0)"/>
      </g>
     </g>
    </g>
    <g id="ytick_7">
     <g id="line2d_27">
      <path d="M 62.39 165.196402 
L 429.387627 165.196402 
" clip-path="url(#p3d00f8bd9b)" style="fill: none; stroke: #b0b0b0; stroke-width: 0.8; stroke-linecap: square"/>
     </g>
     <g id="line2d_28">
      <g>
       <use xlink:href="#ma664470758" x="62.39" y="165.196402" style="stroke: #000000; stroke-width: 0.8"/>
      </g>
     </g>
     <g id="text_15">
      <!-- 0.50 -->
      <g transform="translate(33.124375 168.995621) scale(0.1 -0.1)">
       <use xlink:href="#DejaVuSans-30"/>
       <use xlink:href="#DejaVuSans-2e" transform="translate(63.623047 0)"/>
       <use xlink:href="#DejaVuSans-35" transform="translate(95.410156 0)"/>
       <use xlink:href="#DejaVuSans-30" transform="translate(159.033203 0)"/>
      </g>
     </g>
    </g>
    <g id="ytick_8">
     <g id="line2d_29">
      <path d="M 62.39 107.564591 
L 429.387627 107.564591 
" clip-path="url(#p3d00f8bd9b)" style="fill: none; stroke: #b0b0b0; stroke-width: 0.8; stroke-linecap: square"/>
     </g>
     <g id="line2d_30">
      <g>
       <use xlink:href="#ma664470758" x="62.39" y="107.564591" style="stroke: #000000; stroke-width: 0.8"/>
      </g>
     </g>
     <g id="text_16">
      <!-- 0.75 -->
      <g transform="translate(33.124375 111.363809) scale(0.1 -0.1)">
       <use xlink:href="#DejaVuSans-30"/>
       <use xlink:href="#DejaVuSans-2e" transform="translate(63.623047 0)"/>
       <use xlink:href="#DejaVuSans-37" transform="translate(95.410156 0)"/>
       <use xlink:href="#DejaVuSans-35" transform="translate(159.033203 0)"/>
      </g>
     </g>
    </g>
    <g id="ytick_9">
     <g id="line2d_31">
      <path d="M 62.39 49.932779 
L 429.387627 49.932779 
" clip-path="url(#p3d00f8bd9b)" style="fill: none; stroke: #b0b0b0; stroke-width: 0.8; stroke-linecap: square"/>
     </g>
     <g id="line2d_32">
      <g>
       <use xlink:href="#ma664470758" x="62.39" y="49.932779" style="stroke: #000000; stroke-width: 0.8"/>
      </g>
     </g>
     <g id="text_17">
      <!-- 1.00 -->
      <g transform="translate(33.124375 53.731998) scale(0.1 -0.1)">
       <use xlink:href="#DejaVuSans-31"/>
       <use xlink:href="#DejaVuSans-2e" transform="translate(63.623047 0)"/>
       <use xlink:href="#DejaVuSans-30" transform="translate(95.410156 0)"/>
       <use xlink:href="#DejaVuSans-30" transform="translate(159.033203 0)"/>
      </g>
     </g>
    </g>
    <g id="text_18">
     <!-- Y -->
     <g transform="translate(18.665 283.513906) rotate(-90) scale(0.1 -0.1)">
      <defs>
       <path id="DejaVuSans-59" d="M -13 4666 
L 666 4666 
L 1959 2747 
L 3244 4666 
L 3922 4666 
L 2272 2222 
L 2272 0 
L 1638 0 
L 1638 2222 
L -13 4666 
z
" transform="scale(0.015625)"/>
      </defs>
      <use xlink:href="#DejaVuSans-59"/>
     </g>
    </g>
   </g>
   <g id="line2d_33">
    <path d="M 79.07171 510.987273 
L 82.017805 506.330157 
L 84.9639 501.673041 
L 87.909995 497.015924 
L 90.85609 492.358808 
L 93.802185 487.701692 
L 96.74828 483.044576 
L 99.694375 478.38746 
L 102.64047 473.730344 
L 105.586565 469.073228 
L 108.53266 464.416112 
L 111.478754 459.758996 
L 114.424849 455.10188 
L 117.370944 450.444763 
L 120.317039 445.787647 
L 123.263134 441.130531 
L 126.209229 436.473415 
L 129.155324 431.816299 
L 132.101419 427.159183 
L 135.047514 422.502067 
L 137.993609 417.844951 
L 140.939704 413.187835 
L 143.885799 408.530719 
L 146.831893 403.873602 
L 149.777988 399.216486 
L 152.724083 394.55937 
L 155.670178 389.902254 
L 158.616273 385.245138 
L 161.562368 380.588022 
L 164.508463 375.930906 
L 167.454558 371.27379 
L 170.400653 366.616674 
L 173.346748 361.959558 
L 176.292843 357.302441 
L 179.238938 352.645325 
L 182.185032 347.988209 
L 185.131127 343.331093 
L 188.077222 338.673977 
L 191.023317 334.016861 
L 193.969412 329.359745 
L 196.915507 324.702629 
L 199.861602 320.045513 
L 202.807697 315.388397 
L 205.753792 310.73128 
L 208.699887 306.074164 
L 211.645982 301.417048 
L 214.592077 296.759932 
L 217.538171 292.102816 
L 220.484266 287.4457 
L 223.430361 282.788584 
L 226.376456 278.131468 
L 229.322551 273.474352 
L 232.268646 268.817236 
L 235.214741 264.16012 
L 238.160836 259.503003 
L 241.106931 254.845887 
L 244.053026 250.188771 
L 246.999121 245.531655 
L 249.945216 240.874539 
L 252.89131 236.217423 
L 255.837405 231.560307 
L 258.7835 226.903191 
L 261.729595 222.246075 
L 264.67569 217.588959 
L 267.621785 212.931842 
L 270.56788 208.274726 
L 273.513975 203.61761 
L 276.46007 198.960494 
L 279.406165 194.303378 
L 282.35226 189.646262 
L 285.298355 184.989146 
L 288.24445 180.33203 
L 291.190544 175.674914 
L 294.136639 171.017798 
L 297.082734 166.360681 
L 300.028829 161.703565 
L 302.974924 157.046449 
L 305.921019 152.389333 
L 308.867114 147.732217 
L 311.813209 143.075101 
L 314.759304 138.417985 
L 317.705399 133.760869 
L 320.651494 129.103753 
L 323.597589 124.446637 
L 326.543683 119.78952 
L 329.489778 115.132404 
L 332.435873 110.475288 
L 335.381968 105.818172 
L 338.328063 101.161056 
L 341.274158 96.50394 
L 344.220253 91.846824 
L 347.166348 87.189708 
L 350.112443 82.532592 
L 353.058538 77.875476 
L 356.004633 73.218359 
L 358.950728 68.561243 
L 361.896822 63.904127 
L 364.842917 59.247011 
L 367.789012 54.589895 
L 370.735107 49.932779 
" clip-path="url(#p3d00f8bd9b)" style="fill: none; stroke: #303bc2; stroke-width: 1.8; stroke-linecap: square"/>
   </g>
   <g id="line2d_34">
    <path d="M 79.07171 510.987273 
L 81.514028 505.922245 
L 84.077145 500.94634 
L 86.758047 496.062047 
L 89.553636 491.271788 
L 92.460734 486.57792 
L 95.443937 481.952666 
L 98.43298 477.33279 
L 101.425547 472.716175 
L 104.421636 468.102821 
L 107.421243 463.492733 
L 110.422752 458.884412 
L 113.419001 454.271207 
L 116.409126 449.652333 
L 119.393117 445.027796 
L 122.370963 440.397605 
L 125.344209 435.763191 
L 128.329611 431.13996 
L 131.331666 426.532152 
L 134.350293 421.939819 
L 137.385413 417.363016 
L 140.436654 412.801519 
L 143.489251 408.241311 
L 146.534946 403.674531 
L 149.573724 399.101187 
L 152.605573 394.52129 
L 155.630477 389.934848 
L 158.651742 385.344986 
L 161.673431 380.755521 
L 164.695555 376.166465 
L 167.718112 371.577816 
L 170.741103 366.989575 
L 173.759953 362.397449 
L 176.762926 357.790495 
L 179.749362 353.168218 
L 182.719181 348.53067 
L 185.672304 343.877905 
L 188.610991 339.212077 
L 191.547831 334.544585 
L 194.484715 329.877132 
L 197.421642 325.209718 
L 200.358613 320.542343 
L 203.295526 315.874917 
L 206.230934 311.206136 
L 209.164364 306.535575 
L 212.095814 301.863235 
L 215.025283 297.189117 
L 217.952845 292.513289 
L 220.886516 287.842948 
L 223.831672 283.182961 
L 226.788275 278.533355 
L 229.75629 273.894153 
L 232.735678 269.265381 
L 235.717546 264.63889 
L 238.688709 260.002569 
L 241.64901 255.356328 
L 244.598416 250.700189 
L 247.536895 246.034175 
L 250.45729 241.351954 
L 253.337569 236.634251 
L 256.175762 231.880038 
L 258.971408 227.089647 
L 261.724054 222.263417 
L 264.447179 217.41298 
L 267.232984 212.614396 
L 270.097171 207.88272 
L 273.038168 203.219081 
L 276.054377 198.624585 
L 279.141188 194.097378 
L 282.23753 189.579376 
L 285.319781 185.047677 
L 288.387881 180.50232 
L 291.441768 175.943347 
L 294.481387 171.370802 
L 297.50912 166.787024 
L 300.526922 162.193915 
L 303.534765 157.591494 
L 306.53262 152.97978 
L 309.520457 148.358793 
L 312.494493 143.725111 
L 315.447945 139.072647 
L 318.38056 134.401362 
L 321.292219 129.711339 
L 324.182801 125.002663 
L 327.057724 120.280243 
L 329.937258 115.561856 
L 332.823271 110.849154 
L 335.715753 106.142145 
L 338.614693 101.440836 
L 341.519878 96.745057 
L 344.429615 92.053319 
L 347.343519 87.365287 
L 350.261585 82.680965 
L 353.183808 78.000357 
L 356.110069 73.323363 
L 359.036973 68.646945 
L 361.962928 63.969677 
L 364.887936 59.29156 
L 367.811995 54.612594 
L 370.735106 49.932779 
" clip-path="url(#p3d00f8bd9b)" style="fill: none; stroke: #664ca6; stroke-width: 1.8; stroke-linecap: square"/>
   </g>
   <g id="line2d_35">
    <path d="M 79.07171 510.987273 
L 81.93528 506.61021 
L 84.752371 502.178342 
L 87.522155 497.69326 
L 90.243796 493.156594 
L 92.916454 488.57002 
L 95.570047 483.941274 
L 98.269614 479.284314 
L 101.016682 474.600113 
L 103.810544 469.889243 
L 106.650453 465.152312 
L 109.526661 460.388091 
L 112.398613 455.589049 
L 115.260718 450.755124 
L 118.112082 445.887281 
L 120.951779 440.98652 
L 123.786888 436.05521 
L 126.703071 431.109192 
L 129.722464 426.154348 
L 132.843459 421.192717 
L 136.064371 416.22638 
L 139.383842 411.257555 
L 142.820631 406.293723 
L 146.38393 401.340946 
L 150.071136 396.402624 
L 153.879524 391.482178 
L 157.806254 386.583054 
L 161.770473 381.680372 
L 165.674508 376.741948 
L 169.516341 371.769706 
L 173.294212 366.765679 
L 177.006372 361.731912 
L 180.65484 356.671469 
L 184.247537 351.588821 
L 187.783343 346.485859 
L 191.260672 341.364345 
L 194.677954 336.226046 
L 198.045116 331.075086 
L 201.422675 325.925833 
L 204.818306 320.78155 
L 208.230387 315.643571 
L 211.657296 310.513223 
L 215.092136 305.390637 
L 218.457351 300.260295 
L 221.726522 295.118817 
L 224.898114 289.968485 
L 227.970657 284.811566 
L 230.944 279.650478 
L 233.950533 274.506516 
L 237.077951 269.396692 
L 240.323378 264.325867 
L 243.683827 259.298859 
L 247.156211 254.320433 
L 250.666628 249.375311 
L 254.10809 244.436433 
L 257.478466 239.50471 
L 260.776657 234.581292 
L 264.001614 229.667294 
L 267.176884 224.76937 
L 270.376357 219.905882 
L 273.6038 215.079597 
L 276.857777 210.292069 
L 280.136887 205.544812 
L 283.421102 200.833961 
L 286.584446 196.125704 
L 289.602644 191.415919 
L 292.474598 186.707099 
L 295.199342 182.001714 
L 297.786609 177.304009 
L 300.446727 172.653978 
L 303.259234 168.073028 
L 306.220306 163.568776 
L 309.325851 159.148672 
L 312.570958 154.819774 
L 315.728064 150.506691 
L 318.610357 146.151216 
L 321.213614 141.763464 
L 323.534496 137.353676 
L 325.570559 132.932185 
L 327.514871 128.532282 
L 329.711233 124.209235 
L 332.160096 119.981012 
L 334.853863 115.86436 
L 337.783795 111.875505 
L 340.851766 107.991475 
L 343.726032 104.081604 
L 346.373092 100.139022 
L 348.790103 96.169871 
L 350.974693 92.180357 
L 352.940365 88.179911 
L 354.815376 84.199233 
L 356.628943 80.244583 
L 358.381268 76.315874 
L 360.072568 72.413003 
L 361.706038 68.536418 
L 363.370541 64.703461 
L 365.106772 60.924213 
L 366.91367 57.201108 
L 368.79015 53.536524 
L 370.735106 49.93278 
" clip-path="url(#p3d00f8bd9b)" style="fill: none; stroke: #a64073; stroke-width: 1.8; stroke-linecap: square"/>
   </g>
   <g id="line2d_36">
    <path d="M 79.07171 510.987273 
L 82.160201 509.856087 
L 85.433221 508.773711 
L 88.896204 507.737873 
L 92.554925 506.746088 
L 96.415526 505.795622 
L 100.484385 504.883351 
L 104.768126 504.005693 
L 109.274134 503.158868 
L 114.010281 502.338632 
L 118.984933 501.540195 
L 124.214581 500.763093 
L 129.742379 500.023548 
L 135.582292 499.31791 
L 141.744853 498.638885 
L 148.24117 497.977967 
L 155.067798 497.31457 
L 162.072147 496.522396 
L 169.216923 495.55755 
L 176.508324 494.405625 
L 183.951703 493.050173 
L 191.553308 491.473659 
L 199.424638 489.711443 
L 207.631972 487.768695 
L 216.179378 485.614762 
L 225.067268 483.215362 
L 234.291185 480.532527 
L 243.886999 477.548789 
L 253.893989 474.249055 
L 264.285071 470.586147 
L 275.021147 466.511155 
L 286.049386 461.975348 
L 297.243607 456.898885 
L 308.369311 451.156961 
L 319.316931 444.718853 
L 329.972833 437.572548 
L 340.21634 429.723539 
L 349.965927 421.215858 
L 359.32305 412.195474 
L 368.214092 402.737183 
L 376.548881 392.916455 
L 384.258322 382.820925 
L 391.278693 372.534274 
L 397.321762 361.996908 
L 402.303782 351.256946 
L 406.250365 340.40616 
L 409.20398 329.52465 
L 411.218757 318.679463 
L 412.36318 307.92731 
L 412.705917 297.311051 
L 412.309935 286.860383 
L 411.235427 276.595606 
L 409.538385 266.529279 
L 407.387009 256.696293 
L 404.998039 247.139148 
L 402.409234 237.854553 
L 399.652557 228.836965 
L 396.756136 220.079564 
L 393.839728 211.600991 
L 391.208724 203.485399 
L 388.888153 195.754144 
L 386.881159 188.422268 
L 385.189521 181.50358 
L 383.754257 174.97841 
L 382.183508 168.636459 
L 380.41615 162.430966 
L 378.463088 156.354025 
L 376.333447 150.397859 
L 374.032018 144.553757 
L 371.509433 138.79214 
L 368.747364 133.098732 
L 365.74768 127.468531 
L 362.511218 121.896748 
L 359.038849 116.379067 
L 355.70632 111.016224 
L 352.816505 105.908231 
L 350.363111 101.076034 
L 348.33924 96.538958 
L 346.737243 92.314686 
L 345.37773 88.325413 
L 343.952554 84.407568 
L 342.456763 80.553452 
L 340.891045 76.758811 
L 339.255722 73.019605 
L 337.697882 69.400414 
L 336.746011 66.170126 
L 336.421305 63.392168 
L 336.689324 61.102555 
L 337.510476 59.331931 
L 338.798303 58.058689 
L 340.171363 56.903561 
L 341.549076 55.777692 
L 342.932448 54.679645 
L 344.322452 53.608062 
L 345.723823 52.565366 
L 347.250776 51.661692 
L 348.95479 50.947887 
L 350.833454 50.422669 
L 352.884103 50.084728 
L 355.103817 49.932727 
" clip-path="url(#p3d00f8bd9b)" style="fill: none; stroke: #cf2445; stroke-width: 1.8; stroke-linecap: square"/>
   </g>
   <g id="line2d_37">
    <defs>
     <path id="m9b55e44577" d="M 0 3 
C 0.795609 3 1.55874 2.683901 2.12132 2.12132 
C 2.683901 1.55874 3 0.795609 3 0 
C 3 -0.795609 2.683901 -1.55874 2.12132 -2.12132 
C 1.55874 -2.683901 0.795609 -3 0 -3 
C -0.795609 -3 -1.55874 -2.683901 -2.12132 -2.12132 
C -2.683901 -1.55874 -3 -0.795609 -3 0 
C -3 0.795609 -2.683901 1.55874 -2.12132 2.12132 
C -1.55874 2.683901 -0.795609 3 0 3 
z
" style="stroke: #000000"/>
    </defs>
    <g clip-path="url(#p3d00f8bd9b)">
     <use xlink:href="#m9b55e44577" x="79.07171" y="510.987273" style="stroke: #000000"/>
    </g>
   </g>
   <g id="line2d_38">
    <defs>
     <path id="m3029bbb0f5" d="M 0 -4 
L -4 4 
L 4 4 
z
" style="stroke: #000000; stroke-linejoin: miter"/>
    </defs>
    <g clip-path="url(#p3d00f8bd9b)">
     <use xlink:href="#m3029bbb0f5" x="370.735107" y="49.932779" style="stroke: #000000; stroke-linejoin: miter"/>
    </g>
   </g>
   <g id="patch_3">
    <path d="M 62.39 534.04 
L 62.39 26.88 
" style="fill: none; stroke: #000000; stroke-width: 0.8; stroke-linejoin: miter; stroke-linecap: square"/>
   </g>
   <g id="patch_4">
    <path d="M 429.387627 534.04 
L 429.387627 26.88 
" style="fill: none; stroke: #000000; stroke-width: 0.8; stroke-linejoin: miter; stroke-linecap: square"/>
   </g>
   <g id="patch_5">
    <path d="M 62.39 534.04 
L 429.387627 534.04 
" style="fill: none; stroke: #000000; stroke-width: 0.8; stroke-linejoin: miter; stroke-linecap: square"/>
   </g>
   <g id="patch_6">
    <path d="M 62.39 26.88 
L 429.387627 26.88 
" style="fill: none; stroke: #000000; stroke-width: 0.8; stroke-linejoin: miter; stroke-linecap: square"/>
   </g>
   <g id="text_19">
    <!-- Trajectories (pure Python) -->
    <g transform="translate(168.405376 20.88) scale(0.12 -0.12)">
     <defs>
      <path id="DejaVuSans-54" d="M -19 4666 
L 3928 4666 
L 3928 4134 
L 2272 4134 
L 2272 0 
L 1638 0 
L 1638 4134 
L -19 4134 
L -19 4666 
z
" transform="scale(0.015625)"/>
      <path id="DejaVuSans-72" d="M 2631 2963 
Q 2534 3019 2420 3045 
Q 2306 3072 2169 3072 
Q 1681 3072 1420 2755 
Q 1159 2438 1159 1844 
L 1159 0 
L 581 0 
L 581 3500 
L 1159 3500 
L 1159 2956 
Q 1341 3275 1631 3429 
Q 1922 3584 2338 3584 
Q 2397 3584 2469 3576 
Q 2541 3569 2628 3553 
L 2631 2963 
z
" transform="scale(0.015625)"/>
      <path id="DejaVuSans-61" d="M 2194 1759 
Q 1497 1759 1228 1600 
Q 959 1441 959 1056 
Q 959 750 1161 570 
Q 1363 391 1709 391 
Q 2188 391 2477 730 
Q 2766 1069 2766 1631 
L 2766 1759 
L 2194 1759 
z
M 3341 1997 
L 3341 0 
L 2766 0 
L 2766 531 
Q 2569 213 2275 61 
Q 1981 -91 1556 -91 
Q 1019 -91 701 211 
Q 384 513 384 1019 
Q 384 1609 779 1909 
Q 1175 2209 1959 2209 
L 2766 2209 
L 2766 2266 
Q 2766 2663 2505 2880 
Q 2244 3097 1772 3097 
Q 1472 3097 1187 3025 
Q 903 2953 641 2809 
L 641 3341 
Q 956 3463 1253 3523 
Q 1550 3584 1831 3584 
Q 2591 3584 2966 3190 
Q 3341 2797 3341 1997 
z
" transform="scale(0.015625)"/>
      <path id="DejaVuSans-6a" d="M 603 3500 
L 1178 3500 
L 1178 -63 
Q 1178 -731 923 -1031 
Q 669 -1331 103 -1331 
L -116 -1331 
L -116 -844 
L 38 -844 
Q 366 -844 484 -692 
Q 603 -541 603 -63 
L 603 3500 
z
M 603 4863 
L 1178 4863 
L 1178 4134 
L 603 4134 
L 603 4863 
z
" transform="scale(0.015625)"/>
      <path id="DejaVuSans-65" d="M 3597 1894 
L 3597 1613 
L 953 1613 
Q 991 1019 1311 708 
Q 1631 397 2203 397 
Q 2534 397 2845 478 
Q 3156 559 3463 722 
L 3463 178 
Q 3153 47 2828 -22 
Q 2503 -91 2169 -91 
Q 1331 -91 842 396 
Q 353 884 353 1716 
Q 353 2575 817 3079 
Q 1281 3584 2069 3584 
Q 2775 3584 3186 3129 
Q 3597 2675 3597 1894 
z
M 3022 2063 
Q 3016 2534 2758 2815 
Q 2500 3097 2075 3097 
Q 1594 3097 1305 2825 
Q 1016 2553 972 2059 
L 3022 2063 
z
" transform="scale(0.015625)"/>
      <path id="DejaVuSans-63" d="M 3122 3366 
L 3122 2828 
Q 2878 2963 2633 3030 
Q 2388 3097 2138 3097 
Q 1578 3097 1268 2742 
Q 959 2388 959 1747 
Q 959 1106 1268 751 
Q 1578 397 2138 397 
Q 2388 397 2633 464 
Q 2878 531 3122 666 
L 3122 134 
Q 2881 22 2623 -34 
Q 2366 -91 2075 -91 
Q 1284 -91 818 406 
Q 353 903 353 1747 
Q 353 2603 823 3093 
Q 1294 3584 2113 3584 
Q 2378 3584 2631 3529 
Q 2884 3475 3122 3366 
z
" transform="scale(0.015625)"/>
      <path id="DejaVuSans-74" d="M 1172 4494 
L 1172 3500 
L 2356 3500 
L 2356 3053 
L 1172 3053 
L 1172 1153 
Q 1172 725 1289 603 
Q 1406 481 1766 481 
L 2356 481 
L 2356 0 
L 1766 0 
Q 1100 0 847 248 
Q 594 497 594 1153 
L 594 3053 
L 172 3053 
L 172 3500 
L 594 3500 
L 594 4494 
L 1172 4494 
z
" transform="scale(0.015625)"/>
      <path id="DejaVuSans-6f" d="M 1959 3097 
Q 1497 3097 1228 2736 
Q 959 2375 959 1747 
Q 959 1119 1226 758 
Q 1494 397 1959 397 
Q 2419 397 2687 759 
Q 2956 1122 2956 1747 
Q 2956 2369 2687 2733 
Q 2419 3097 1959 3097 
z
M 1959 3584 
Q 2709 3584 3137 3096 
Q 3566 2609 3566 1747 
Q 3566 888 3137 398 
Q 2709 -91 1959 -91 
Q 1206 -91 779 398 
Q 353 888 353 1747 
Q 353 2609 779 3096 
Q 1206 3584 1959 3584 
z
" transform="scale(0.015625)"/>
      <path id="DejaVuSans-69" d="M 603 3500 
L 1178 3500 
L 1178 0 
L 603 0 
L 603 3500 
z
M 603 4863 
L 1178 4863 
L 1178 4134 
L 603 4134 
L 603 4863 
z
" transform="scale(0.015625)"/>
      <path id="DejaVuSans-73" d="M 2834 3397 
L 2834 2853 
Q 2591 2978 2328 3040 
Q 2066 3103 1784 3103 
Q 1356 3103 1142 2972 
Q 928 2841 928 2578 
Q 928 2378 1081 2264 
Q 1234 2150 1697 2047 
L 1894 2003 
Q 2506 1872 2764 1633 
Q 3022 1394 3022 966 
Q 3022 478 2636 193 
Q 2250 -91 1575 -91 
Q 1294 -91 989 -36 
Q 684 19 347 128 
L 347 722 
Q 666 556 975 473 
Q 1284 391 1588 391 
Q 1994 391 2212 530 
Q 2431 669 2431 922 
Q 2431 1156 2273 1281 
Q 2116 1406 1581 1522 
L 1381 1569 
Q 847 1681 609 1914 
Q 372 2147 372 2553 
Q 372 3047 722 3315 
Q 1072 3584 1716 3584 
Q 2034 3584 2315 3537 
Q 2597 3491 2834 3397 
z
" transform="scale(0.015625)"/>
      <path id="DejaVuSans-20" transform="scale(0.015625)"/>
      <path id="DejaVuSans-28" d="M 1984 4856 
Q 1566 4138 1362 3434 
Q 1159 2731 1159 2009 
Q 1159 1288 1364 580 
Q 1569 -128 1984 -844 
L 1484 -844 
Q 1016 -109 783 600 
Q 550 1309 550 2009 
Q 550 2706 781 3412 
Q 1013 4119 1484 4856 
L 1984 4856 
z
" transform="scale(0.015625)"/>
      <path id="DejaVuSans-70" d="M 1159 525 
L 1159 -1331 
L 581 -1331 
L 581 3500 
L 1159 3500 
L 1159 2969 
Q 1341 3281 1617 3432 
Q 1894 3584 2278 3584 
Q 2916 3584 3314 3078 
Q 3713 2572 3713 1747 
Q 3713 922 3314 415 
Q 2916 -91 2278 -91 
Q 1894 -91 1617 61 
Q 1341 213 1159 525 
z
M 3116 1747 
Q 3116 2381 2855 2742 
Q 2594 3103 2138 3103 
Q 1681 3103 1420 2742 
Q 1159 2381 1159 1747 
Q 1159 1113 1420 752 
Q 1681 391 2138 391 
Q 2594 391 2855 752 
Q 3116 1113 3116 1747 
z
" transform="scale(0.015625)"/>
      <path id="DejaVuSans-75" d="M 544 1381 
L 544 3500 
L 1119 3500 
L 1119 1403 
Q 1119 906 1312 657 
Q 1506 409 1894 409 
Q 2359 409 2629 706 
Q 2900 1003 2900 1516 
L 2900 3500 
L 3475 3500 
L 3475 0 
L 2900 0 
L 2900 538 
Q 2691 219 2414 64 
Q 2138 -91 1772 -91 
Q 1169 -91 856 284 
Q 544 659 544 1381 
z
M 1991 3584 
L 1991 3584 
z
" transform="scale(0.015625)"/>
      <path id="DejaVuSans-50" d="M 1259 4147 
L 1259 2394 
L 2053 2394 
Q 2494 2394 2734 2622 
Q 2975 2850 2975 3272 
Q 2975 3691 2734 3919 
Q 2494 4147 2053 4147 
L 1259 4147 
z
M 628 4666 
L 2053 4666 
Q 2838 4666 3239 4311 
Q 3641 3956 3641 3272 
Q 3641 2581 3239 2228 
Q 2838 1875 2053 1875 
L 1259 1875 
L 1259 0 
L 628 0 
L 628 4666 
z
" transform="scale(0.015625)"/>
      <path id="DejaVuSans-79" d="M 2059 -325 
Q 1816 -950 1584 -1140 
Q 1353 -1331 966 -1331 
L 506 -1331 
L 506 -850 
L 844 -850 
Q 1081 -850 1212 -737 
Q 1344 -625 1503 -206 
L 1606 56 
L 191 3500 
L 800 3500 
L 1894 763 
L 2988 3500 
L 3597 3500 
L 2059 -325 
z
" transform="scale(0.015625)"/>
      <path id="DejaVuSans-68" d="M 3513 2113 
L 3513 0 
L 2938 0 
L 2938 2094 
Q 2938 2591 2744 2837 
Q 2550 3084 2163 3084 
Q 1697 3084 1428 2787 
Q 1159 2491 1159 1978 
L 1159 0 
L 581 0 
L 581 4863 
L 1159 4863 
L 1159 2956 
Q 1366 3272 1645 3428 
Q 1925 3584 2291 3584 
Q 2894 3584 3203 3211 
Q 3513 2838 3513 2113 
z
" transform="scale(0.015625)"/>
      <path id="DejaVuSans-6e" d="M 3513 2113 
L 3513 0 
L 2938 0 
L 2938 2094 
Q 2938 2591 2744 2837 
Q 2550 3084 2163 3084 
Q 1697 3084 1428 2787 
Q 1159 2491 1159 1978 
L 1159 0 
L 581 0 
L 581 3500 
L 1159 3500 
L 1159 2956 
Q 1366 3272 1645 3428 
Q 1925 3584 2291 3584 
Q 2894 3584 3203 3211 
Q 3513 2838 3513 2113 
z
" transform="scale(0.015625)"/>
      <path id="DejaVuSans-29" d="M 513 4856 
L 1013 4856 
Q 1481 4119 1714 3412 
Q 1947 2706 1947 2009 
Q 1947 1309 1714 600 
Q 1481 -109 1013 -844 
L 513 -844 
Q 928 -128 1133 580 
Q 1338 1288 1338 2009 
Q 1338 2731 1133 3434 
Q 928 4138 513 4856 
z
" transform="scale(0.015625)"/>
     </defs>
     <use xlink:href="#DejaVuSans-54"/>
     <use xlink:href="#DejaVuSans-72" transform="translate(46.333984 0)"/>
     <use xlink:href="#DejaVuSans-61" transform="translate(87.447266 0)"/>
     <use xlink:href="#DejaVuSans-6a" transform="translate(148.726562 0)"/>
     <use xlink:href="#DejaVuSans-65" transform="translate(176.509766 0)"/>
     <use xlink:href="#DejaVuSans-63" transform="translate(238.033203 0)"/>
     <use xlink:href="#DejaVuSans-74" transform="translate(293.013672 0)"/>
     <use xlink:href="#DejaVuSans-6f" transform="translate(332.222656 0)"/>
     <use xlink:href="#DejaVuSans-72" transform="translate(393.404297 0)"/>
     <use xlink:href="#DejaVuSans-69" transform="translate(434.517578 0)"/>
     <use xlink:href="#DejaVuSans-65" transform="translate(462.300781 0)"/>
     <use xlink:href="#DejaVuSans-73" transform="translate(523.824219 0)"/>
     <use xlink:href="#DejaVuSans-20" transform="translate(575.923828 0)"/>
     <use xlink:href="#DejaVuSans-28" transform="translate(607.710938 0)"/>
     <use xlink:href="#DejaVuSans-70" transform="translate(646.724609 0)"/>
     <use xlink:href="#DejaVuSans-75" transform="translate(710.201172 0)"/>
     <use xlink:href="#DejaVuSans-72" transform="translate(773.580078 0)"/>
     <use xlink:href="#DejaVuSans-65" transform="translate(812.443359 0)"/>
     <use xlink:href="#DejaVuSans-20" transform="translate(873.966797 0)"/>
     <use xlink:href="#DejaVuSans-50" transform="translate(905.753906 0)"/>
     <use xlink:href="#DejaVuSans-79" transform="translate(966.056641 0)"/>
     <use xlink:href="#DejaVuSans-74" transform="translate(1025.236328 0)"/>
     <use xlink:href="#DejaVuSans-68" transform="translate(1064.445312 0)"/>
     <use xlink:href="#DejaVuSans-6f" transform="translate(1127.824219 0)"/>
     <use xlink:href="#DejaVuSans-6e" transform="translate(1189.005859 0)"/>
     <use xlink:href="#DejaVuSans-29" transform="translate(1252.384766 0)"/>
    </g>
   </g>
   <g id="legend_1">
    <g id="patch_7">
     <path d="M 69.39 93.5925 
L 184.575938 93.5925 
Q 186.575938 93.5925 186.575938 91.5925 
L 186.575938 33.88 
Q 186.575938 31.88 184.575938 31.88 
L 69.39 31.88 
Q 67.39 31.88 67.39 33.88 
L 67.39 91.5925 
Q 67.39 93.5925 69.39 93.5925 
z
" style="fill: #ffffff; opacity: 0.8; stroke: #cccccc; stroke-linejoin: miter"/>
    </g>
    <g id="line2d_39">
     <path d="M 71.39 39.978437 
L 81.39 39.978437 
L 91.39 39.978437 
" style="fill: none; stroke: #303bc2; stroke-width: 1.8; stroke-linecap: square"/>
    </g>
    <g id="text_20">
     <!-- noWind -->
     <g transform="translate(99.39 43.478437) scale(0.1 -0.1)">
      <defs>
       <path id="DejaVuSans-57" d="M 213 4666 
L 850 4666 
L 1831 722 
L 2809 4666 
L 3519 4666 
L 4500 722 
L 5478 4666 
L 6119 4666 
L 4947 0 
L 4153 0 
L 3169 4050 
L 2175 0 
L 1381 0 
L 213 4666 
z
" transform="scale(0.015625)"/>
       <path id="DejaVuSans-64" d="M 2906 2969 
L 2906 4863 
L 3481 4863 
L 3481 0 
L 2906 0 
L 2906 525 
Q 2725 213 2448 61 
Q 2172 -91 1784 -91 
Q 1150 -91 751 415 
Q 353 922 353 1747 
Q 353 2572 751 3078 
Q 1150 3584 1784 3584 
Q 2172 3584 2448 3432 
Q 2725 3281 2906 2969 
z
M 947 1747 
Q 947 1113 1208 752 
Q 1469 391 1925 391 
Q 2381 391 2643 752 
Q 2906 1113 2906 1747 
Q 2906 2381 2643 2742 
Q 2381 3103 1925 3103 
Q 1469 3103 1208 2742 
Q 947 2381 947 1747 
z
" transform="scale(0.015625)"/>
      </defs>
      <use xlink:href="#DejaVuSans-6e"/>
      <use xlink:href="#DejaVuSans-6f" transform="translate(63.378906 0)"/>
      <use xlink:href="#DejaVuSans-57" transform="translate(124.560547 0)"/>
      <use xlink:href="#DejaVuSans-69" transform="translate(221.1875 0)"/>
      <use xlink:href="#DejaVuSans-6e" transform="translate(248.970703 0)"/>
      <use xlink:href="#DejaVuSans-64" transform="translate(312.349609 0)"/>
     </g>
    </g>
    <g id="line2d_40">
     <path d="M 71.39 54.656562 
L 81.39 54.656562 
L 91.39 54.656562 
" style="fill: none; stroke: #664ca6; stroke-width: 1.8; stroke-linecap: square"/>
    </g>
    <g id="text_21">
     <!-- uniformWind -->
     <g transform="translate(99.39 58.156562) scale(0.1 -0.1)">
      <defs>
       <path id="DejaVuSans-66" d="M 2375 4863 
L 2375 4384 
L 1825 4384 
Q 1516 4384 1395 4259 
Q 1275 4134 1275 3809 
L 1275 3500 
L 2222 3500 
L 2222 3053 
L 1275 3053 
L 1275 0 
L 697 0 
L 697 3053 
L 147 3053 
L 147 3500 
L 697 3500 
L 697 3744 
Q 697 4328 969 4595 
Q 1241 4863 1831 4863 
L 2375 4863 
z
" transform="scale(0.015625)"/>
       <path id="DejaVuSans-6d" d="M 3328 2828 
Q 3544 3216 3844 3400 
Q 4144 3584 4550 3584 
Q 5097 3584 5394 3201 
Q 5691 2819 5691 2113 
L 5691 0 
L 5113 0 
L 5113 2094 
Q 5113 2597 4934 2840 
Q 4756 3084 4391 3084 
Q 3944 3084 3684 2787 
Q 3425 2491 3425 1978 
L 3425 0 
L 2847 0 
L 2847 2094 
Q 2847 2600 2669 2842 
Q 2491 3084 2119 3084 
Q 1678 3084 1418 2786 
Q 1159 2488 1159 1978 
L 1159 0 
L 581 0 
L 581 3500 
L 1159 3500 
L 1159 2956 
Q 1356 3278 1631 3431 
Q 1906 3584 2284 3584 
Q 2666 3584 2933 3390 
Q 3200 3197 3328 2828 
z
" transform="scale(0.015625)"/>
      </defs>
      <use xlink:href="#DejaVuSans-75"/>
      <use xlink:href="#DejaVuSans-6e" transform="translate(63.378906 0)"/>
      <use xlink:href="#DejaVuSans-69" transform="translate(126.757812 0)"/>
      <use xlink:href="#DejaVuSans-66" transform="translate(154.541016 0)"/>
      <use xlink:href="#DejaVuSans-6f" transform="translate(189.746094 0)"/>
      <use xlink:href="#DejaVuSans-72" transform="translate(250.927734 0)"/>
      <use xlink:href="#DejaVuSans-6d" transform="translate(290.291016 0)"/>
      <use xlink:href="#DejaVuSans-57" transform="translate(387.703125 0)"/>
      <use xlink:href="#DejaVuSans-69" transform="translate(484.330078 0)"/>
      <use xlink:href="#DejaVuSans-6e" transform="translate(512.113281 0)"/>
      <use xlink:href="#DejaVuSans-64" transform="translate(575.492188 0)"/>
     </g>
    </g>
    <g id="line2d_41">
     <path d="M 71.39 69.334687 
L 81.39 69.334687 
L 91.39 69.334687 
" style="fill: none; stroke: #a64073; stroke-width: 1.8; stroke-linecap: square"/>
    </g>
    <g id="text_22">
     <!-- constantDirWind -->
     <g transform="translate(99.39 72.834687) scale(0.1 -0.1)">
      <defs>
       <path id="DejaVuSans-44" d="M 1259 4147 
L 1259 519 
L 2022 519 
Q 2988 519 3436 956 
Q 3884 1394 3884 2338 
Q 3884 3275 3436 3711 
Q 2988 4147 2022 4147 
L 1259 4147 
z
M 628 4666 
L 1925 4666 
Q 3281 4666 3915 4102 
Q 4550 3538 4550 2338 
Q 4550 1131 3912 565 
Q 3275 0 1925 0 
L 628 0 
L 628 4666 
z
" transform="scale(0.015625)"/>
      </defs>
      <use xlink:href="#DejaVuSans-63"/>
      <use xlink:href="#DejaVuSans-6f" transform="translate(54.980469 0)"/>
      <use xlink:href="#DejaVuSans-6e" transform="translate(116.162109 0)"/>
      <use xlink:href="#DejaVuSans-73" transform="translate(179.541016 0)"/>
      <use xlink:href="#DejaVuSans-74" transform="translate(231.640625 0)"/>
      <use xlink:href="#DejaVuSans-61" transform="translate(270.849609 0)"/>
      <use xlink:href="#DejaVuSans-6e" transform="translate(332.128906 0)"/>
      <use xlink:href="#DejaVuSans-74" transform="translate(395.507812 0)"/>
      <use xlink:href="#DejaVuSans-44" transform="translate(434.716797 0)"/>
      <use xlink:href="#DejaVuSans-69" transform="translate(511.71875 0)"/>
      <use xlink:href="#DejaVuSans-72" transform="translate(539.501953 0)"/>
      <use xlink:href="#DejaVuSans-57" transform="translate(580.615234 0)"/>
      <use xlink:href="#DejaVuSans-69" transform="translate(677.242188 0)"/>
      <use xlink:href="#DejaVuSans-6e" transform="translate(705.025391 0)"/>
      <use xlink:href="#DejaVuSans-64" transform="translate(768.404297 0)"/>
     </g>
    </g>
    <g id="line2d_42">
     <path d="M 71.39 84.012812 
L 81.39 84.012812 
L 91.39 84.012812 
" style="fill: none; stroke: #cf2445; stroke-width: 1.8; stroke-linecap: square"/>
    </g>
    <g id="text_23">
     <!-- variableDirWind -->
     <g transform="translate(99.39 87.512812) scale(0.1 -0.1)">
      <defs>
       <path id="DejaVuSans-76" d="M 191 3500 
L 800 3500 
L 1894 563 
L 2988 3500 
L 3597 3500 
L 2284 0 
L 1503 0 
L 191 3500 
z
" transform="scale(0.015625)"/>
       <path id="DejaVuSans-62" d="M 3116 1747 
Q 3116 2381 2855 2742 
Q 2594 3103 2138 3103 
Q 1681 3103 1420 2742 
Q 1159 2381 1159 1747 
Q 1159 1113 1420 752 
Q 1681 391 2138 391 
Q 2594 391 2855 752 
Q 3116 1113 3116 1747 
z
M 1159 2969 
Q 1341 3281 1617 3432 
Q 1894 3584 2278 3584 
Q 2916 3584 3314 3078 
Q 3713 2572 3713 1747 
Q 3713 922 3314 415 
Q 2916 -91 2278 -91 
Q 1894 -91 1617 61 
Q 1341 213 1159 525 
L 1159 0 
L 581 0 
L 581 4863 
L 1159 4863 
L 1159 2969 
z
" transform="scale(0.015625)"/>
       <path id="DejaVuSans-6c" d="M 603 4863 
L 1178 4863 
L 1178 0 
L 603 0 
L 603 4863 
z
" transform="scale(0.015625)"/>
      </defs>
      <use xlink:href="#DejaVuSans-76"/>
      <use xlink:href="#DejaVuSans-61" transform="translate(59.179688 0)"/>
      <use xlink:href="#DejaVuSans-72" transform="translate(120.458984 0)"/>
      <use xlink:href="#DejaVuSans-69" transform="translate(161.572266 0)"/>
      <use xlink:href="#DejaVuSans-61" transform="translate(189.355469 0)"/>
      <use xlink:href="#DejaVuSans-62" transform="translate(250.634766 0)"/>
      <use xlink:href="#DejaVuSans-6c" transform="translate(314.111328 0)"/>
      <use xlink:href="#DejaVuSans-65" transform="translate(341.894531 0)"/>
      <use xlink:href="#DejaVuSans-44" transform="translate(403.417969 0)"/>
      <use xlink:href="#DejaVuSans-69" transform="translate(480.419922 0)"/>
      <use xlink:href="#DejaVuSans-72" transform="translate(508.203125 0)"/>
      <use xlink:href="#DejaVuSans-57" transform="translate(549.316406 0)"/>
      <use xlink:href="#DejaVuSans-69" transform="translate(645.943359 0)"/>
      <use xlink:href="#DejaVuSans-6e" transform="translate(673.726562 0)"/>
      <use xlink:href="#DejaVuSans-64" transform="translate(737.105469 0)"/>
     </g>
    </g>
   </g>
  </g>
  <g id="axes_2">
   <g id="patch_8">
    <path d="M 486.202373 534.04 
L 853.2 534.04 
L 853.2 26.88 
L 486.202373 26.88 
z
" style="fill: #ffffff"/>
   </g>
   <g id="matplotlib.axis_3">
    <g id="xtick_8">
     <g id="line2d_43">
      <path d="M 502.884083 534.04 
L 502.884083 26.88 
" clip-path="url(#pfefe2ae414)" style="fill: none; stroke: #b0b0b0; stroke-width: 0.8; stroke-linecap: square"/>
     </g>
     <g id="line2d_44">
      <g>
       <use xlink:href="#m987c3e066a" x="502.884083" y="534.04" style="stroke: #000000; stroke-width: 0.8"/>
      </g>
     </g>
     <g id="text_24">
      <!-- 0.0 -->
      <g transform="translate(494.93252 548.638438) scale(0.1 -0.1)">
       <use xlink:href="#DejaVuSans-30"/>
       <use xlink:href="#DejaVuSans-2e" transform="translate(63.623047 0)"/>
       <use xlink:href="#DejaVuSans-30" transform="translate(95.410156 0)"/>
      </g>
     </g>
    </g>
    <g id="xtick_9">
     <g id="line2d_45">
      <path d="M 573.585791 534.04 
L 573.585791 26.88 
" clip-path="url(#pfefe2ae414)" style="fill: none; stroke: #b0b0b0; stroke-width: 0.8; stroke-linecap: square"/>
     </g>
     <g id="line2d_46">
      <g>
       <use xlink:href="#m987c3e066a" x="573.585791" y="534.04" style="stroke: #000000; stroke-width: 0.8"/>
      </g>
     </g>
     <g id="text_25">
      <!-- 0.5 -->
      <g transform="translate(565.634228 548.638438) scale(0.1 -0.1)">
       <use xlink:href="#DejaVuSans-30"/>
       <use xlink:href="#DejaVuSans-2e" transform="translate(63.623047 0)"/>
       <use xlink:href="#DejaVuSans-35" transform="translate(95.410156 0)"/>
      </g>
     </g>
    </g>
    <g id="xtick_10">
     <g id="line2d_47">
      <path d="M 644.287498 534.04 
L 644.287498 26.88 
" clip-path="url(#pfefe2ae414)" style="fill: none; stroke: #b0b0b0; stroke-width: 0.8; stroke-linecap: square"/>
     </g>
     <g id="line2d_48">
      <g>
       <use xlink:href="#m987c3e066a" x="644.287498" y="534.04" style="stroke: #000000; stroke-width: 0.8"/>
      </g>
     </g>
     <g id="text_26">
      <!-- 1.0 -->
      <g transform="translate(636.335936 548.638438) scale(0.1 -0.1)">
       <use xlink:href="#DejaVuSans-31"/>
       <use xlink:href="#DejaVuSans-2e" transform="translate(63.623047 0)"/>
       <use xlink:href="#DejaVuSans-30" transform="translate(95.410156 0)"/>
      </g>
     </g>
    </g>
    <g id="xtick_11">
     <g id="line2d_49">
      <path d="M 714.989206 534.04 
L 714.989206 26.88 
" clip-path="url(#pfefe2ae414)" style="fill: none; stroke: #b0b0b0; stroke-width: 0.8; stroke-linecap: square"/>
     </g>
     <g id="line2d_50">
      <g>
       <use xlink:href="#m987c3e066a" x="714.989206" y="534.04" style="stroke: #000000; stroke-width: 0.8"/>
      </g>
     </g>
     <g id="text_27">
      <!-- 1.5 -->
      <g transform="translate(707.037643 548.638438) scale(0.1 -0.1)">
       <use xlink:href="#DejaVuSans-31"/>
       <use xlink:href="#DejaVuSans-2e" transform="translate(63.623047 0)"/>
       <use xlink:href="#DejaVuSans-35" transform="translate(95.410156 0)"/>
      </g>
     </g>
    </g>
    <g id="xtick_12">
     <g id="line2d_51">
      <path d="M 785.690914 534.04 
L 785.690914 26.88 
" clip-path="url(#pfefe2ae414)" style="fill: none; stroke: #b0b0b0; stroke-width: 0.8; stroke-linecap: square"/>
     </g>
     <g id="line2d_52">
      <g>
       <use xlink:href="#m987c3e066a" x="785.690914" y="534.04" style="stroke: #000000; stroke-width: 0.8"/>
      </g>
     </g>
     <g id="text_28">
      <!-- 2.0 -->
      <g transform="translate(777.739351 548.638438) scale(0.1 -0.1)">
       <use xlink:href="#DejaVuSans-32"/>
       <use xlink:href="#DejaVuSans-2e" transform="translate(63.623047 0)"/>
       <use xlink:href="#DejaVuSans-30" transform="translate(95.410156 0)"/>
      </g>
     </g>
    </g>
    <g id="text_29">
     <!-- Time -->
     <g transform="translate(657.467593 562.316562) scale(0.1 -0.1)">
      <use xlink:href="#DejaVuSans-54"/>
      <use xlink:href="#DejaVuSans-69" transform="translate(57.958984 0)"/>
      <use xlink:href="#DejaVuSans-6d" transform="translate(85.742188 0)"/>
      <use xlink:href="#DejaVuSans-65" transform="translate(183.154297 0)"/>
     </g>
    </g>
   </g>
   <g id="matplotlib.axis_4">
    <g id="ytick_10">
     <g id="line2d_53">
      <path d="M 486.202373 497.716079 
L 853.2 497.716079 
" clip-path="url(#pfefe2ae414)" style="fill: none; stroke: #b0b0b0; stroke-width: 0.8; stroke-linecap: square"/>
     </g>
     <g id="line2d_54">
      <g>
       <use xlink:href="#ma664470758" x="486.202373" y="497.716079" style="stroke: #000000; stroke-width: 0.8"/>
      </g>
     </g>
     <g id="text_30">
      <!-- 0.6 -->
      <g transform="translate(463.299248 501.515298) scale(0.1 -0.1)">
       <use xlink:href="#DejaVuSans-30"/>
       <use xlink:href="#DejaVuSans-2e" transform="translate(63.623047 0)"/>
       <use xlink:href="#DejaVuSans-36" transform="translate(95.410156 0)"/>
      </g>
     </g>
    </g>
    <g id="ytick_11">
     <g id="line2d_55">
      <path d="M 486.202373 388.349305 
L 853.2 388.349305 
" clip-path="url(#pfefe2ae414)" style="fill: none; stroke: #b0b0b0; stroke-width: 0.8; stroke-linecap: square"/>
     </g>
     <g id="line2d_56">
      <g>
       <use xlink:href="#ma664470758" x="486.202373" y="388.349305" style="stroke: #000000; stroke-width: 0.8"/>
      </g>
     </g>
     <g id="text_31">
      <!-- 0.8 -->
      <g transform="translate(463.299248 392.148523) scale(0.1 -0.1)">
       <use xlink:href="#DejaVuSans-30"/>
       <use xlink:href="#DejaVuSans-2e" transform="translate(63.623047 0)"/>
       <use xlink:href="#DejaVuSans-38" transform="translate(95.410156 0)"/>
      </g>
     </g>
    </g>
    <g id="ytick_12">
     <g id="line2d_57">
      <path d="M 486.202373 278.98253 
L 853.2 278.98253 
" clip-path="url(#pfefe2ae414)" style="fill: none; stroke: #b0b0b0; stroke-width: 0.8; stroke-linecap: square"/>
     </g>
     <g id="line2d_58">
      <g>
       <use xlink:href="#ma664470758" x="486.202373" y="278.98253" style="stroke: #000000; stroke-width: 0.8"/>
      </g>
     </g>
     <g id="text_32">
      <!-- 1.0 -->
      <g transform="translate(463.299248 282.781749) scale(0.1 -0.1)">
       <use xlink:href="#DejaVuSans-31"/>
       <use xlink:href="#DejaVuSans-2e" transform="translate(63.623047 0)"/>
       <use xlink:href="#DejaVuSans-30" transform="translate(95.410156 0)"/>
      </g>
     </g>
    </g>
    <g id="ytick_13">
     <g id="line2d_59">
      <path d="M 486.202373 169.615756 
L 853.2 169.615756 
" clip-path="url(#pfefe2ae414)" style="fill: none; stroke: #b0b0b0; stroke-width: 0.8; stroke-linecap: square"/>
     </g>
     <g id="line2d_60">
      <g>
       <use xlink:href="#ma664470758" x="486.202373" y="169.615756" style="stroke: #000000; stroke-width: 0.8"/>
      </g>
     </g>
     <g id="text_33">
      <!-- 1.2 -->
      <g transform="translate(463.299248 173.414974) scale(0.1 -0.1)">
       <use xlink:href="#DejaVuSans-31"/>
       <use xlink:href="#DejaVuSans-2e" transform="translate(63.623047 0)"/>
       <use xlink:href="#DejaVuSans-32" transform="translate(95.410156 0)"/>
      </g>
     </g>
    </g>
    <g id="ytick_14">
     <g id="line2d_61">
      <path d="M 486.202373 60.248981 
L 853.2 60.248981 
" clip-path="url(#pfefe2ae414)" style="fill: none; stroke: #b0b0b0; stroke-width: 0.8; stroke-linecap: square"/>
     </g>
     <g id="line2d_62">
      <g>
       <use xlink:href="#ma664470758" x="486.202373" y="60.248981" style="stroke: #000000; stroke-width: 0.8"/>
      </g>
     </g>
     <g id="text_34">
      <!-- 1.4 -->
      <g transform="translate(463.299248 64.0482) scale(0.1 -0.1)">
       <use xlink:href="#DejaVuSans-31"/>
       <use xlink:href="#DejaVuSans-2e" transform="translate(63.623047 0)"/>
       <use xlink:href="#DejaVuSans-34" transform="translate(95.410156 0)"/>
      </g>
     </g>
    </g>
    <g id="text_35">
     <!-- $\theta$ (rad) -->
     <g transform="translate(457.21956 297.31) rotate(-90) scale(0.1 -0.1)">
      <defs>
       <path id="DejaVuSans-Oblique-3b8" d="M 2913 2219 
L 925 2219 
Q 791 1284 928 888 
Q 1100 400 1566 400 
Q 2034 400 2391 891 
Q 2703 1322 2913 2219 
z
M 3009 2750 
Q 3094 3638 2984 3950 
Q 2813 4444 2353 4444 
Q 1875 4444 1525 3956 
Q 1250 3563 1034 2750 
L 3009 2750 
z
M 2444 4913 
Q 3194 4913 3494 4250 
Q 3794 3591 3566 2422 
Q 3341 1256 2781 594 
Q 2225 -72 1475 -72 
Q 722 -72 425 594 
Q 128 1256 353 2422 
Q 581 3591 1134 4250 
Q 1691 4913 2444 4913 
z
" transform="scale(0.015625)"/>
      </defs>
      <use xlink:href="#DejaVuSans-Oblique-3b8" transform="translate(0 0.234375)"/>
      <use xlink:href="#DejaVuSans-20" transform="translate(61.181641 0.234375)"/>
      <use xlink:href="#DejaVuSans-28" transform="translate(92.96875 0.234375)"/>
      <use xlink:href="#DejaVuSans-72" transform="translate(131.982422 0.234375)"/>
      <use xlink:href="#DejaVuSans-61" transform="translate(173.095703 0.234375)"/>
      <use xlink:href="#DejaVuSans-64" transform="translate(234.375 0.234375)"/>
      <use xlink:href="#DejaVuSans-29" transform="translate(297.851562 0.234375)"/>
     </g>
    </g>
   </g>
   <g id="line2d_63">
    <path d="M 502.884083 220.389982 
L 506.077897 220.389982 
L 509.271712 220.389982 
L 512.465527 220.389982 
L 515.659341 220.389982 
L 518.853156 220.389982 
L 522.046971 220.389982 
L 525.240785 220.389982 
L 528.4346 220.389982 
L 531.628415 220.389982 
L 534.822229 220.389982 
L 538.016044 220.389982 
L 541.209858 220.389982 
L 544.403673 220.389982 
L 547.597488 220.389982 
L 550.791302 220.389982 
L 553.985117 220.389982 
L 557.178932 220.389982 
L 560.372746 220.389982 
L 563.566561 220.389982 
L 566.760376 220.389982 
L 569.95419 220.389982 
L 573.148005 220.389982 
L 576.341819 220.389982 
L 579.535634 220.389982 
L 582.729449 220.389982 
L 585.923263 220.389982 
L 589.117078 220.389982 
L 592.310893 220.389982 
L 595.504707 220.389982 
L 598.698522 220.389982 
L 601.892337 220.389982 
L 605.086151 220.389982 
L 608.279966 220.389982 
L 611.47378 220.389982 
L 614.667595 220.389982 
L 617.86141 220.389982 
L 621.055224 220.389982 
L 624.249039 220.389982 
L 627.442854 220.389982 
L 630.636668 220.389982 
L 633.830483 220.389982 
L 637.024298 220.389982 
L 640.218112 220.389982 
L 643.411927 220.389982 
L 646.605741 220.389982 
L 649.799556 220.389982 
L 652.993371 220.389982 
L 656.187185 220.389982 
L 659.381 220.389982 
L 662.574815 220.389982 
L 665.768629 220.389982 
L 668.962444 220.389982 
L 672.156259 220.389982 
L 675.350073 220.389982 
L 678.543888 220.389982 
L 681.737702 220.389982 
L 684.931517 220.389982 
L 688.125332 220.389982 
L 691.319146 220.389982 
L 694.512961 220.389982 
L 697.706776 220.389982 
L 700.90059 220.389982 
L 704.094405 220.389982 
L 707.28822 220.389982 
L 710.482034 220.389982 
L 713.675849 220.389982 
L 716.869663 220.389982 
L 720.063478 220.389982 
L 723.257293 220.389982 
L 726.451107 220.389982 
L 729.644922 220.389982 
L 732.838737 220.389982 
L 736.032551 220.389982 
L 739.226366 220.389982 
L 742.420181 220.389982 
L 745.613995 220.389982 
L 748.80781 220.389982 
L 752.001624 220.389982 
L 755.195439 220.389982 
L 758.389254 220.389982 
L 761.583068 220.389982 
L 764.776883 220.389982 
L 767.970698 220.389982 
L 771.164512 220.389982 
L 774.358327 220.389982 
L 777.552142 220.389982 
L 780.745956 220.389982 
L 783.939771 220.389982 
L 787.133585 220.389982 
L 790.3274 220.389982 
L 793.521215 220.389982 
L 796.715029 220.389982 
L 799.908844 220.389982 
L 803.102659 220.389982 
L 806.296473 220.389982 
L 809.490288 220.389982 
L 812.684103 220.389982 
L 815.877917 220.389982 
L 819.071732 220.389982 
" clip-path="url(#pfefe2ae414)" style="fill: none; stroke: #303bc2; stroke-width: 1.8; stroke-linecap: square"/>
   </g>
   <g id="line2d_64">
    <path d="M 502.884083 363.09326 
L 505.314218 377.51635 
L 507.744352 391.93944 
L 510.174487 406.36253 
L 512.604622 420.78562 
L 515.034757 435.20871 
L 517.464892 438.618975 
L 519.895026 439.092487 
L 522.325161 439.565998 
L 524.755296 440.03951 
L 527.185431 440.513022 
L 529.615566 440.235849 
L 532.0457 439.412724 
L 534.475835 438.589598 
L 536.90597 437.766473 
L 539.336105 436.943348 
L 541.76624 437.2483 
L 544.196374 439.4871 
L 546.626509 441.725901 
L 549.056644 443.964701 
L 551.486779 446.203501 
L 553.916914 447.939888 
L 556.347048 446.996735 
L 558.777183 446.053582 
L 561.207318 445.110429 
L 563.637453 444.167276 
L 566.067588 443.224123 
L 568.497722 443.230236 
L 570.927857 443.289086 
L 573.357992 443.347936 
L 575.788127 443.406787 
L 578.218262 443.465637 
L 580.648396 441.842344 
L 583.078531 439.618285 
L 585.508666 437.394227 
L 587.938801 435.170169 
L 590.368936 432.946111 
L 592.79907 431.895631 
L 595.229205 431.901374 
L 597.65934 431.907116 
L 600.089475 431.912858 
L 602.51961 431.9186 
L 604.949744 431.839911 
L 607.379879 431.57829 
L 609.810014 431.316669 
L 612.240149 431.055048 
L 614.670284 430.793427 
L 617.100419 430.719395 
L 619.530553 432.239875 
L 621.960688 433.760356 
L 624.390823 435.280836 
L 626.820958 436.801317 
L 629.251093 438.321797 
L 631.681227 437.185708 
L 634.111362 435.737081 
L 636.541497 434.288455 
L 638.971632 432.839828 
L 641.401767 431.391201 
L 643.831901 427.202034 
L 646.262036 421.748002 
L 648.692171 416.29397 
L 651.122306 410.839938 
L 653.552441 405.385906 
L 655.982575 407.28492 
L 658.41271 417.353986 
L 660.842845 427.423053 
L 663.27298 437.492119 
L 665.703115 447.561185 
L 668.133249 454.467534 
L 670.563384 452.518276 
L 672.993519 450.569018 
L 675.423654 448.619759 
L 677.853789 446.670501 
L 680.283923 444.752971 
L 682.714058 443.406548 
L 685.144193 442.060126 
L 687.574328 440.713704 
L 690.004463 439.367281 
L 692.434597 438.020859 
L 694.864732 435.482761 
L 697.294867 432.721223 
L 699.725002 429.959686 
L 702.155137 427.198148 
L 704.585271 424.436611 
L 707.015406 423.952827 
L 709.445541 424.797734 
L 711.875676 425.642641 
L 714.305811 426.487547 
L 716.735945 427.332454 
L 719.16608 428.052142 
L 721.596215 428.599656 
L 724.02635 429.147169 
L 726.456485 429.694683 
L 728.886619 430.242196 
L 731.316754 430.648118 
L 733.746889 430.52307 
L 736.177024 430.398023 
L 738.607159 430.272976 
L 741.037293 430.147928 
L 743.467428 430.022881 
" clip-path="url(#pfefe2ae414)" style="fill: none; stroke: #664ca6; stroke-width: 1.8; stroke-linecap: square"/>
   </g>
   <g id="line2d_65">
    <path d="M 502.884083 160.477107 
L 504.600206 149.226296 
L 506.31633 137.975485 
L 508.032454 126.724673 
L 509.748577 115.473862 
L 511.464701 104.223051 
L 513.180824 102.899351 
L 514.896948 104.22288 
L 516.613071 105.54641 
L 518.329195 106.869939 
L 520.045318 108.193469 
L 521.761442 105.562995 
L 523.477565 100.056882 
L 525.193689 94.55077 
L 526.909813 89.044658 
L 528.625936 83.538545 
L 530.34206 83.547216 
L 532.058183 93.009801 
L 533.774307 102.472386 
L 535.49043 111.93497 
L 537.206554 121.397555 
L 538.922677 131.528844 
L 540.638801 145.226552 
L 542.354924 158.92426 
L 544.071048 172.621969 
L 545.787172 186.319677 
L 547.503295 200.017385 
L 549.219419 191.328648 
L 550.935542 181.396219 
L 552.651666 171.46379 
L 554.367789 161.531361 
L 556.083913 151.598933 
L 557.800036 142.994828 
L 559.51616 134.865125 
L 561.232283 126.735422 
L 562.948407 118.605719 
L 564.664531 110.476016 
L 566.380654 107.918388 
L 568.096778 110.375629 
L 569.812901 112.83287 
L 571.529025 115.29011 
L 573.245148 117.747351 
L 574.961272 115.899141 
L 576.677395 104.722454 
L 578.393519 93.545768 
L 580.109642 82.369081 
L 581.825766 71.192395 
L 583.54189 62.994732 
L 585.258013 80.118774 
L 586.974137 97.242815 
L 588.69026 114.366856 
L 590.406384 131.490897 
L 592.122507 148.614939 
L 593.838631 144.974912 
L 595.554754 138.892054 
L 597.270878 132.809196 
L 598.987001 126.726338 
L 600.703125 120.64348 
L 602.419249 123.794 
L 604.135372 131.206079 
L 605.851496 138.618159 
L 607.567619 146.030238 
L 609.283743 153.442317 
L 610.999866 150.493122 
L 612.71599 136.031398 
L 614.432113 121.569675 
L 616.148237 107.107952 
L 617.864361 92.646228 
L 619.580484 88.34241 
L 621.296608 112.480727 
L 623.012731 136.619044 
L 624.728855 160.757361 
L 626.444978 184.895678 
L 628.161102 206.119486 
L 629.877225 174.882134 
L 631.593349 143.644783 
L 633.309472 112.407431 
L 635.025596 81.170079 
L 636.74172 49.932727 
L 638.457843 76.532713 
L 640.173967 113.9772 
L 641.89009 151.421686 
L 643.606214 188.866173 
L 645.322337 226.31066 
L 647.038461 224.259984 
L 648.754584 199.170464 
L 650.470708 174.080944 
L 652.186831 148.991424 
L 653.902955 123.901904 
L 655.619079 108.158835 
L 657.335202 105.267137 
L 659.051326 102.375438 
L 660.767449 99.483739 
L 662.483573 96.59204 
L 664.199696 97.272494 
L 665.91582 111.348522 
L 667.631943 125.424549 
L 669.348067 139.500577 
L 671.06419 153.576604 
L 672.780314 167.652632 
" clip-path="url(#pfefe2ae414)" style="fill: none; stroke: #a64073; stroke-width: 1.8; stroke-linecap: square"/>
   </g>
   <g id="line2d_66">
    <path d="M 502.884083 336.156544 
L 506.254125 336.870396 
L 509.624168 337.584248 
L 512.99421 338.2981 
L 516.364253 339.011952 
L 519.734295 339.725804 
L 523.104338 340.40816 
L 526.47438 341.082116 
L 529.844423 341.756073 
L 533.214465 342.430029 
L 536.584508 343.103986 
L 539.95455 345.919503 
L 543.324593 350.292518 
L 546.694635 354.665534 
L 550.064678 359.038549 
L 553.43472 363.411564 
L 556.804763 360.880164 
L 560.174805 346.512621 
L 563.544848 332.145078 
L 566.91489 317.777536 
L 570.284933 303.409993 
L 573.654975 291.076641 
L 577.025018 289.592306 
L 580.39506 288.107971 
L 583.765103 286.623635 
L 587.135145 285.1393 
L 590.505188 283.654965 
L 593.87523 289.542448 
L 597.245273 295.839477 
L 600.615315 302.136506 
L 603.985358 308.433535 
L 607.3554 314.730564 
L 610.725443 308.708977 
L 614.095485 298.287885 
L 617.465528 287.866793 
L 620.83557 277.4457 
L 624.205613 267.024608 
L 627.575655 267.843873 
L 630.945698 278.779458 
L 634.31574 289.715044 
L 637.685783 300.65063 
L 641.055825 311.586216 
L 644.425868 313.229122 
L 647.79591 294.737891 
L 651.165953 276.246659 
L 654.535995 257.755427 
L 657.906038 239.264195 
L 661.27608 220.868817 
L 664.646123 203.288196 
L 668.016165 185.707574 
L 671.386208 168.126952 
L 674.75625 150.54633 
L 678.126292 132.965708 
L 681.496335 132.739744 
L 684.866377 134.555505 
L 688.23642 136.371265 
L 691.606462 138.187026 
L 694.976505 140.002787 
L 698.346547 160.397323 
L 701.71659 189.366678 
L 705.086632 218.336034 
L 708.456675 247.30539 
L 711.826717 276.274745 
L 715.19676 286.121105 
L 718.566802 274.719692 
L 721.936845 263.318279 
L 725.306887 251.916866 
L 728.67693 240.515453 
L 732.046972 227.632806 
L 735.417015 210.602708 
L 738.787057 193.572609 
L 742.1571 176.54251 
L 745.527142 159.512411 
L 748.897185 144.879977 
L 752.267227 173.405513 
L 755.63727 201.931049 
L 759.007312 230.456585 
L 762.377355 258.982121 
L 765.747397 287.507657 
L 769.11744 285.008429 
L 772.487482 276.692059 
L 775.857525 268.375689 
L 779.227567 260.059318 
L 782.59761 251.742948 
L 785.967652 277.353729 
L 789.337695 322.755349 
L 792.707737 368.156968 
L 796.07778 413.558588 
L 799.447822 458.960208 
L 802.817865 482.678744 
L 806.187907 476.583042 
L 809.55795 470.48734 
L 812.927992 464.391637 
L 816.298035 458.295935 
L 819.668077 455.806922 
L 823.03812 466.842992 
L 826.408162 477.879062 
L 829.778205 488.915132 
L 833.148247 499.951202 
L 836.51829 510.987273 
" clip-path="url(#pfefe2ae414)" style="fill: none; stroke: #cf2445; stroke-width: 1.8; stroke-linecap: square"/>
   </g>
   <g id="patch_9">
    <path d="M 486.202373 534.04 
L 486.202373 26.88 
" style="fill: none; stroke: #000000; stroke-width: 0.8; stroke-linejoin: miter; stroke-linecap: square"/>
   </g>
   <g id="patch_10">
    <path d="M 853.2 534.04 
L 853.2 26.88 
" style="fill: none; stroke: #000000; stroke-width: 0.8; stroke-linejoin: miter; stroke-linecap: square"/>
   </g>
   <g id="patch_11">
    <path d="M 486.202373 534.04 
L 853.2 534.04 
" style="fill: none; stroke: #000000; stroke-width: 0.8; stroke-linejoin: miter; stroke-linecap: square"/>
   </g>
   <g id="patch_12">
    <path d="M 486.202373 26.88 
L 853.2 26.88 
" style="fill: none; stroke: #000000; stroke-width: 0.8; stroke-linejoin: miter; stroke-linecap: square"/>
   </g>
   <g id="text_36">
    <!-- Control angle over time -->
    <g transform="translate(598.711811 20.88) scale(0.12 -0.12)">
     <defs>
      <path id="DejaVuSans-43" d="M 4122 4306 
L 4122 3641 
Q 3803 3938 3442 4084 
Q 3081 4231 2675 4231 
Q 1875 4231 1450 3742 
Q 1025 3253 1025 2328 
Q 1025 1406 1450 917 
Q 1875 428 2675 428 
Q 3081 428 3442 575 
Q 3803 722 4122 1019 
L 4122 359 
Q 3791 134 3420 21 
Q 3050 -91 2638 -91 
Q 1578 -91 968 557 
Q 359 1206 359 2328 
Q 359 3453 968 4101 
Q 1578 4750 2638 4750 
Q 3056 4750 3426 4639 
Q 3797 4528 4122 4306 
z
" transform="scale(0.015625)"/>
      <path id="DejaVuSans-67" d="M 2906 1791 
Q 2906 2416 2648 2759 
Q 2391 3103 1925 3103 
Q 1463 3103 1205 2759 
Q 947 2416 947 1791 
Q 947 1169 1205 825 
Q 1463 481 1925 481 
Q 2391 481 2648 825 
Q 2906 1169 2906 1791 
z
M 3481 434 
Q 3481 -459 3084 -895 
Q 2688 -1331 1869 -1331 
Q 1566 -1331 1297 -1286 
Q 1028 -1241 775 -1147 
L 775 -588 
Q 1028 -725 1275 -790 
Q 1522 -856 1778 -856 
Q 2344 -856 2625 -561 
Q 2906 -266 2906 331 
L 2906 616 
Q 2728 306 2450 153 
Q 2172 0 1784 0 
Q 1141 0 747 490 
Q 353 981 353 1791 
Q 353 2603 747 3093 
Q 1141 3584 1784 3584 
Q 2172 3584 2450 3431 
Q 2728 3278 2906 2969 
L 2906 3500 
L 3481 3500 
L 3481 434 
z
" transform="scale(0.015625)"/>
     </defs>
     <use xlink:href="#DejaVuSans-43"/>
     <use xlink:href="#DejaVuSans-6f" transform="translate(69.824219 0)"/>
     <use xlink:href="#DejaVuSans-6e" transform="translate(131.005859 0)"/>
     <use xlink:href="#DejaVuSans-74" transform="translate(194.384766 0)"/>
     <use xlink:href="#DejaVuSans-72" transform="translate(233.59375 0)"/>
     <use xlink:href="#DejaVuSans-6f" transform="translate(272.457031 0)"/>
     <use xlink:href="#DejaVuSans-6c" transform="translate(333.638672 0)"/>
     <use xlink:href="#DejaVuSans-20" transform="translate(361.421875 0)"/>
     <use xlink:href="#DejaVuSans-61" transform="translate(393.208984 0)"/>
     <use xlink:href="#DejaVuSans-6e" transform="translate(454.488281 0)"/>
     <use xlink:href="#DejaVuSans-67" transform="translate(517.867188 0)"/>
     <use xlink:href="#DejaVuSans-6c" transform="translate(581.34375 0)"/>
     <use xlink:href="#DejaVuSans-65" transform="translate(609.126953 0)"/>
     <use xlink:href="#DejaVuSans-20" transform="translate(670.650391 0)"/>
     <use xlink:href="#DejaVuSans-6f" transform="translate(702.4375 0)"/>
     <use xlink:href="#DejaVuSans-76" transform="translate(763.619141 0)"/>
     <use xlink:href="#DejaVuSans-65" transform="translate(822.798828 0)"/>
     <use xlink:href="#DejaVuSans-72" transform="translate(884.322266 0)"/>
     <use xlink:href="#DejaVuSans-20" transform="translate(925.435547 0)"/>
     <use xlink:href="#DejaVuSans-74" transform="translate(957.222656 0)"/>
     <use xlink:href="#DejaVuSans-69" transform="translate(996.431641 0)"/>
     <use xlink:href="#DejaVuSans-6d" transform="translate(1024.214844 0)"/>
     <use xlink:href="#DejaVuSans-65" transform="translate(1121.626953 0)"/>
    </g>
   </g>
  </g>
 </g>
 <defs>
  <clipPath id="p3d00f8bd9b">
   <rect x="62.39" y="26.88" width="366.997627" height="507.16"/>
  </clipPath>
  <clipPath id="pfefe2ae414">
   <rect x="486.202373" y="26.88" width="366.997627" height="507.16"/>
  </clipPath>
 </defs>
</svg>
